<svg enable-background="new 0 0 504 432" viewBox="0 0 504 432" xmlns="http://www.w3.org/2000/svg"><path d="m482.83 53.34c-9.89-28.9-49.49-25.41-49.49-25.41l-106 9.38-238.76 21.13c-59.18 5.24-59.81 60.86-59.81 60.86l-1.77 157.66c-.26 22.99 9.53 38.44 21.1 48.66 16.42 14.52 36.42 18.51 36.42 18.51l148.53 29.51 142.86 28.39c58.14 11.55 66.39-43.53 66.39-43.53l41.98-280.73c1.51-10.01.76-18.01-1.45-24.43" fill="#00c1ca"/><path d="m386.66 248.59c-.65-15.84 11.81-40.87 29.64-40.31 3.94 10.69-14.66 33.25-29.64 40.31m6.36 12.47s16.22-11.42 20.91-17.2c33.46-41.18 7.78-60.93-10.88-45.62-10.71 8.78-20.18 19.1-25.17 31.64-3.29 8.26-4.17 17.06-7.05 25.35-2 5.75-19.95 8.66-25.59 7.63-14.94-2.73 13.13-37.63-7.58-40.89-6.88-1.08-15.58 8.08-20.21 12.05-9.15 7.86-18.1 15.96-27.17 23.91-.1-11.41 6.74-23.95 10-34.7 1.26-4.16 3.92-11.14 1.77-15.39-5.22-10.36-15.77 1.78-18.8 5.47-12.32 15.01-16.47 27.91-32.99 38.93-21.24 14.16-18.28-9.16-11.14-18.17 7.04-8.88 4.82-27.59-7.8-15-10.84 10.82-19.01 23.84-31.09 33.55-6.43 5.17-24.61 15.42-25.22.51-.67-16.43 22.06-39.33 37.67-42.48 5.49-1.11 15.55 3.79 18.58-3.01 3.91-8.76-8.63-12.69-14.98-11.81-26.96 3.76-52.94 31.45-58.7 62.17-7.83 41.79 44.76 14.82 58.42 2.14 11.77 27.13 41.69 2.63 55.13-8.57-.91 10.44-11.66 39.23 10.68 33.32 10.88-2.87 35.22-45.51 38.92-29.62 1.55 6.66 4.14 13.68 8.88 18.81 11.75 12.73 31.48.7 42.7-6.66 8.55 21.19 28.36 19.69 47 12.96 5.36-1.94 25.01-9.34 37.34-17.9l2.16-14.48c-6.22 2.5-13.34 8.02-17.21 9.98-9.82 4.97-20.68 10.66-31.74 12.05-5.03.64-19.92.57-16.84-8.97m-237.74-208.53-16.82 1.49c-5.73 3.74-11.78 10.1-16.34 19.2-7.99 15.92 8.01 36.65 11.02 52.05 4.69 24.04 5.42 49.02 4.21 73.29-.86 17.13-2.97 34.21-6.58 50.98-2.7 12.51-6.83 34.28-17.37 43.25-13.7 11.66-40.89 7.18-52.33-3.97-6.54-6.38-7.91-18.85-5.97-27.63.9-4.07 4.55-10.36.53-14.03-5.26-4.81-16.34-2.84-21.97-.17-2.36 1.12-4.47 2.37-6.34 3.72l-.29 26.23c-.08 6.92.77 13.14 2.28 18.75.66.51 1.34 1 2.05 1.48 20.14 13.6 48.32 19.51 72.27 14.97 35.95-6.82 43.68-45.05 50.37-74.67 13.44-59.53 11.38-122.25 2.15-182.65-.16-.88-.45-1.64-.87-2.29" fill="#fff"/></svg>